<?xml version="1.0" encoding="utf-8"?>
<!-- Uploaded to: SVG Repo, www.svgrepo.com, Generator: SVG Repo Mixer Tools -->
<svg version="1.1" id="Uploaded to svgrepo.com" xmlns="http://www.w3.org/2000/svg" xmlns:xlink="http://www.w3.org/1999/xlink" 
	 width="800px" height="800px" viewBox="0 0 64 64" xml:space="preserve">
<style type="text/css">
	.fandom_drie{fill:#BE9148;}
	.fandom_vijf{fill:#018273;}
	.fandom_zes{fill:#00B3AA;}
	.fandom_elf{fill:#4B322A;}
	.fandom_twaalf{fill:#644638;}
	.fandom_dertien{fill:#AA9991;}
	.fandom_veertien{fill:#EFEAE0;}
	.fandom_negentien{fill:#CCCCCC;}
	.fandom_twintig{fill:#FFFAFA;}
	.st0{fill:#FF786E;}
	.st1{fill:#BE5652;}
	.st2{fill:#FFC865;}
	.st3{fill:#8579A3;}
	.st4{fill:#808080;}
	.st5{fill:#666666;}
	.st6{fill:#685683;}
	.st7{fill:#4D4D4D;}
	.st8{fill:#6BC4D2;}
	.st9{fill:#508D9B;}
	.st10{fill:#3A3A3A;}
</style>
<g>
	<g>
		<path class="fandom_zes" d="M32,7C18.193,7,7,18.193,7,32h50C57,18.193,45.807,7,32,7z"/>
		<path class="fandom_vijf" d="M32,57c13.807,0,25-11.193,25-25H7C7,45.807,18.193,57,32,57z"/>
	</g>
	<g>
		<path class="fandom_veertien" d="M32,26c-1.785,0-8.643-0.136-12.437-2.109l4.371,27.388c3.359,3.586,12.83,3.631,16.132,0.114
			l4.439-27.535C40.725,25.863,33.796,26,32,26z"/>
		<path class="fandom_twaalf" d="M32,33c-5.31,0-9.112-0.583-11.167-1.153l2.023,12.674c0,0,5.353,0.479,9.145,0.479
			c3.56,0,9.174-0.484,9.174-0.484l2.045-12.684C41.178,32.405,37.359,33,32,33z M32,43c-2.209,0-4-1.791-4-4c0-2.209,1.791-4,4-4
			s4,1.791,4,4C36,41.209,34.209,43,32,43z"/>
		<path class="fandom_drie" d="M44.422,19.466c-2.778,2.67-14.988,3.264-21.423,1.616c-1.553-0.398-2.762-0.928-3.427-1.59
			C19.212,19.812,19,20.149,19,20.5c0,1.933,5.82,3.5,13,3.5s13-1.567,13-3.5C45,20.14,44.797,19.793,44.422,19.466z"/>
		<path class="fandom_twintig" d="M47,20.5c0,5.235-12.495,5.5-15,5.5s-15-0.265-15-5.5c0-1.333,0.827-2.341,2.091-3.107
			C19.032,17.684,19,17.985,19,18.293c0,0.439,0.207,0.836,0.568,1.195C19.211,19.809,19,20.147,19,20.5c0,1.933,5.82,3.5,13,3.5
			s13-1.567,13-3.5c0-0.359-0.205-0.704-0.582-1.03C44.79,19.114,45,18.722,45,18.293c0-0.31-0.032-0.612-0.091-0.904
			C46.174,18.155,47,19.165,47,20.5z M40.5,13.793h-1.64c-0.468-1.761-2.154-3-4.032-3c0,0-0.418-0.152-0.494-0.364
			c-0.627-1.752-2.053-2.27-2.982-2.407c-0.307-0.045-0.548,0.206-0.544,0.507c0.579,0.403,1.146,1.067,1.335,2.149
			c0.069,0.394-0.135,0.805-0.499,0.97c-0.542,0.246-1.361,0.833-1.928,2.225c-0.117,0.287-0.352,0.501-0.651,0.58
			c-6.626,1.765-6.065,6.628-6.065,6.628C30.288,22.949,45,21.94,45,18.293C45,15.808,42.985,13.793,40.5,13.793z"/>
		<path class="fandom_negentien" d="M30.807,8.529c-0.01,0.006,0.255,1.065-0.432,2.034c-0.105,0.149-0.444,0.23-0.626,0.23h-1.217
			c-1.878,0-2.924,1.239-3.392,3H23.5c-2.485,0-4.5,2.015-4.5,4.5c0,1.247,1.598,2.173,3.999,2.788
			c0.015-4.729,4.56-6.253,6.065-6.628c0.3-0.075,0.534-0.294,0.651-0.58c0.567-1.392,1.386-1.979,1.928-2.225
			c0.364-0.165,0.568-0.576,0.499-0.97C31.954,9.596,31.387,8.932,30.807,8.529z"/>
		<path class="fandom_dertien" d="M28,39c0-1.781,1.172-3.272,2.78-3.79l-0.396-9.24c-2.794-0.097-7.796-0.501-10.832-2.084
			l4.382,27.394c0,0,2.388,2.67,7.651,2.709l-0.476-11.096C29.33,42.486,28,40.902,28,39z"/>
		<path class="fandom_elf" d="M28,39c0-1.781,1.172-3.273,2.782-3.791l-0.095-2.218c-4.626-0.096-7.984-0.673-9.862-1.194
			l2.028,12.675c2.379,0.317,5.152,0.5,8.349,0.528l-0.09-2.107C29.331,42.488,28,40.903,28,39z"/>
	</g>
</g>
</svg>